<svg width="220" height="541" viewBox="0 0 220 541" fill="none" xmlns="http://www.w3.org/2000/svg">
<path d="M195.024 1.40908C193.593 -0.273975 191.068 -0.478339 189.385 0.952621L161.958 24.2713C160.275 25.7022 160.071 28.2266 161.502 29.9096C162.933 31.5927 165.457 31.7971 167.14 30.3662L191.52 9.63842L212.247 34.018C213.678 35.7011 216.203 35.9054 217.886 34.4745C219.569 33.0435 219.773 30.5192 218.342 28.8361L195.024 1.40908ZM7.18913 540.029C125.349 383.957 182.907 165.591 195.963 4.32281L187.989 3.67728C175.009 164.011 117.752 380.737 0.810873 535.201L7.18913 540.029Z" fill="white"/>
</svg>
