<svg width="356" height="356" viewBox="0 0 356 356" fill="none" xmlns="http://www.w3.org/2000/svg">
<path d="M299.641 1.03182C292.533 4.11926 290.738 13.4533 296.123 19.341L298.564 22.0694V31.9061C298.564 39.3734 298.348 41.671 297.63 41.671C297.128 41.671 294.615 39.517 291.959 36.7885C287.507 32.2651 287.22 31.7625 286.861 28.1725C286.287 21.4232 282.194 17.6178 275.589 17.6178C268.625 17.6178 264.461 21.7822 264.461 28.7469C264.461 35.3525 268.266 39.4452 275.015 40.0196C278.605 40.3786 279.107 40.6658 283.702 45.1174C286.359 47.774 288.512 50.2871 288.512 50.7897C288.512 52.5129 283.559 62.581 279.035 64.9504L273.579 68.8474L253.189 53.0873C233.158 38.3682 230.143 36.4295 221.743 33.2703C206.163 27.4545 194.245 27.3827 171.989 32.9831C155.907 37.0039 152.101 38.799 146.358 45.1174C136.809 55.4567 135.158 69.1707 141.835 82.023C145.281 88.7004 154.327 98.1063 162.009 103.204C165.455 105.43 168.399 107.369 168.543 107.44C168.686 107.584 168.255 108.805 167.609 110.169C164.522 116.703 168.686 124.96 175.722 126.109C177.876 126.468 178.666 127.114 180.03 129.411C180.891 130.991 181.538 132.427 181.394 132.571C181.179 132.714 179.096 132.14 176.584 131.35C172.922 130.129 171.989 129.483 171.199 127.545C168.112 120.221 158.419 118.426 152.748 124.17C143.558 133.289 154.471 148.295 165.886 142.264C168.471 140.828 168.471 140.828 173.209 142.407C175.794 143.197 177.948 144.346 177.948 144.849C177.948 145.351 175.65 146.931 172.85 148.367C167.968 150.808 167.609 150.88 164.378 150.018C159.496 148.798 155.978 149.659 152.748 152.89C144.635 161.004 151.886 174.143 163.302 172.061C166.461 171.415 171.127 166.891 171.845 163.804C172.276 161.865 173.137 161.147 177.876 158.778L183.332 155.978L185.414 157.629C189.65 161.004 196.04 161.65 208.102 159.855C211.835 159.28 216.933 158.132 219.445 157.414L223.897 155.978V166.676C223.897 172.564 223.681 177.374 223.466 177.374C223.251 177.374 222.174 176.728 221.097 176.01C213.056 170.266 200.491 171.702 192.809 179.169C188.932 182.903 187.497 186.206 185.127 196.904C183.907 202.074 182.902 206.453 182.758 206.525C182.686 206.597 179.096 205.089 174.789 203.294C167.394 200.135 166.82 199.704 165.671 197.048C162.368 189.15 152.891 187.139 147.004 193.099C138.03 202.074 147.937 216.434 159.712 211.48C162.153 210.474 162.44 210.546 171.486 214.423C177.876 217.224 180.604 218.731 180.389 219.378C180.173 219.952 175.722 222.752 170.553 225.768C161.291 231.009 161.004 231.081 158.132 230.363C153.825 229.214 150.091 230.148 147.004 233.307C138.891 241.349 146.142 254.56 157.486 252.478C161.148 251.76 164.881 248.17 165.958 244.364C166.748 241.277 167.035 241.061 175.507 236.179C183.476 231.656 185.845 230.578 185.845 231.584C185.845 231.799 184.697 236.61 183.261 242.282C180.676 252.549 180.676 252.621 177.661 254.704C170.553 259.73 170.481 268.633 177.517 273.874C180.317 275.957 187.066 275.957 189.866 273.874C193.671 271.074 194.82 268.776 194.82 264.253C194.82 261.094 194.461 259.514 193.312 258.078L191.876 256.068L194.389 245.872L196.902 235.605L199.989 234.815C201.64 234.312 204.297 232.876 205.804 231.512L208.604 229.142L209.897 240.918L211.117 252.693L209.179 256.14C196.686 277.68 177.804 295.199 156.266 305.108C138.173 313.508 114.553 317.601 97.896 315.231C65.66 310.708 40.747 286.368 35.3624 254.273C32.4188 236.179 36.9419 216.29 47.424 201.284C49.1471 198.843 55.5368 191.232 61.7112 184.411C86.9832 156.337 86.0498 157.414 86.0498 155.116C86.0498 152.316 83.2498 149.372 80.5934 149.372C78.5831 149.372 48.4291 167.466 40.2445 173.569C26.5316 183.836 13.8956 200.279 7.43402 216.29C-11.5917 263.679 6.93145 317.314 51.2291 342.803C68.46 352.711 86.696 356.804 109.383 355.871C148.584 354.363 185.773 342.157 218.153 320.186C230.502 311.857 237.538 305.969 248.738 294.84C259.723 283.783 265.753 276.603 273.579 264.971C276.379 260.807 278.82 257.288 279.035 257.073C279.538 256.427 284.851 263.104 287.005 267.125C288.154 269.279 289.661 273.013 290.307 275.382C290.954 277.751 291.959 281.054 292.533 282.778L293.682 285.793L289.805 294.912C286.143 303.528 285.856 303.959 283.056 305.179C275.159 308.626 273.148 317.96 279.107 323.919C288.082 332.894 302.441 322.986 297.487 311.282C296.482 308.841 296.554 308.482 299.928 300.728L303.374 292.686L306.892 292.901C310.841 293.117 311.056 293.26 314.718 299.794C316.943 303.815 317.087 304.39 316.369 307.046C315.22 311.354 316.154 315.088 319.313 318.175C327.354 326.289 340.564 319.037 338.482 307.692C337.764 304.031 334.174 300.297 330.369 299.22C327.426 298.43 326.995 297.999 323.62 292.112C320.102 285.937 320.031 285.793 321.179 283.639C322.256 281.485 322.328 281.485 328.287 281.485C334.174 281.485 334.39 281.557 336.759 283.926C343.795 290.963 356 285.721 356 275.741C356 265.689 344.226 260.663 336.687 267.556C334.102 269.853 333.672 269.997 328.718 269.997H323.549L323.979 267.269C325.918 254.704 327.354 240.272 326.995 236.394C325.918 224.26 316.154 214.208 304.236 212.844C301.938 212.557 300 212.126 300 211.839C300 211.623 300.789 208.679 301.795 205.376C306.174 190.801 309.118 172.276 309.836 154.757C310.482 137.525 308.184 123.093 302.513 109.379C301.077 105.861 299.784 102.558 299.569 101.984C299.354 101.266 300.718 99.9013 303.302 98.0345C310.841 92.7213 317.231 83.1 319.672 73.4787C321.251 67.3038 321.897 56.3901 320.892 52.8001L320.102 49.9281L324.841 45.1892C329.364 40.6658 329.795 40.3786 333.528 40.0914C340.277 39.517 344.154 35.4243 344.154 28.7469C344.154 21.7822 339.99 17.6178 333.026 17.6178C326.349 17.6178 322.256 21.495 321.682 28.2443C321.395 31.9779 321.108 32.4087 316.513 37.0039C313.784 39.7324 311.272 41.5992 310.841 41.3838C310.338 41.0248 310.051 37.5784 310.051 31.4753V22.0694L312.492 19.341C320.892 10.0787 311.056 -3.92243 299.641 1.03182ZM206.45 116.056C208.533 116.631 210.327 117.349 210.543 117.708C211.261 118.785 208.317 121.729 204.512 123.811C201.927 125.175 199.343 125.965 196.256 126.252L191.732 126.611L189.938 123.811C188.358 121.226 188.286 120.652 189.004 117.636L189.722 114.261L196.256 114.62C199.774 114.836 204.368 115.482 206.45 116.056Z" fill="#FFBD12"/>
</svg>
