<svg width="375" height="513" viewBox="0 0 375 513" fill="none" xmlns="http://www.w3.org/2000/svg">
<path d="M461.372 1.58863C450.428 6.34217 447.664 20.7133 455.956 29.7781L459.714 33.9789V49.1238C459.714 60.6207 459.382 64.1582 458.277 64.1582C457.503 64.1582 453.634 60.8417 449.544 56.641C442.69 49.6765 442.248 48.9027 441.695 43.3753C440.811 32.984 434.509 27.1249 424.339 27.1249C413.616 27.1249 407.204 33.5367 407.204 44.2597C407.204 54.43 413.063 60.7312 423.455 61.6156C428.982 62.1683 429.756 62.6105 436.831 69.4644C440.921 73.5547 444.238 77.4238 444.238 78.1976C444.238 80.8507 436.61 96.352 429.645 100L421.244 106L389.849 81.7351C359.006 59.073 354.363 56.0882 341.429 51.2242C317.44 42.2699 299.09 42.1593 264.82 50.782C240.057 56.9726 234.199 59.7363 225.355 69.4644C210.652 85.3832 208.109 106.498 218.39 126.286C223.697 136.566 237.625 151.048 249.454 158.897C254.76 162.324 259.293 165.309 259.514 165.419C259.735 165.64 259.072 167.52 258.077 169.62C253.323 179.68 259.735 192.393 270.568 194.161C273.885 194.714 275.101 195.709 277.201 199.246C278.528 201.678 279.523 203.889 279.302 204.111C278.97 204.332 275.764 203.447 271.895 202.231C266.257 200.352 264.82 199.357 263.604 196.372C258.85 185.096 243.927 182.333 235.193 191.177C221.043 205.216 237.847 228.32 255.424 219.034C259.403 216.823 259.403 216.823 266.699 219.255C270.679 220.471 273.995 222.24 273.995 223.014C273.995 223.788 270.458 226.22 266.147 228.431C258.629 232.189 258.077 232.3 253.102 230.973C245.585 229.094 240.168 230.421 235.193 235.395C222.702 247.887 233.867 268.117 251.444 264.911C256.308 263.916 263.493 256.952 264.599 252.198C265.262 249.214 266.589 248.108 273.885 244.46L282.286 240.149L285.492 242.691C292.015 247.887 301.853 248.882 320.425 246.118C326.173 245.234 334.022 243.465 337.891 242.36L344.745 240.149V256.62C344.745 265.685 344.414 273.092 344.082 273.092C343.75 273.092 342.092 272.097 340.434 270.991C328.053 262.148 308.707 264.359 296.879 275.855C290.909 281.604 288.698 286.689 285.05 303.161C283.171 311.12 281.623 317.863 281.402 317.974C281.291 318.084 275.764 315.763 269.131 312.999C257.745 308.135 256.861 307.472 255.092 303.382C250.007 291.221 235.415 288.126 226.35 297.302C212.531 311.12 227.787 333.229 245.916 325.602C249.675 324.054 250.117 324.164 264.046 330.134C273.885 334.445 278.086 336.767 277.754 337.762C277.422 338.646 270.568 342.957 262.609 347.6C248.349 355.67 247.906 355.781 243.484 354.675C236.852 352.907 231.103 354.344 226.35 359.208C213.858 371.589 225.023 391.93 242.49 388.724C248.127 387.618 253.876 382.091 255.534 376.232C256.75 371.479 257.192 371.147 270.237 363.63C282.507 356.665 286.156 355.007 286.156 356.555C286.156 356.886 284.387 364.293 282.176 373.026C278.196 388.834 278.196 388.945 273.553 392.151C262.609 399.889 262.499 413.597 273.332 421.667C277.643 424.873 288.035 424.873 292.346 421.667C298.205 417.355 299.974 413.818 299.974 406.854C299.974 401.989 299.421 399.557 297.652 397.346L295.441 394.251L299.311 378.554L303.18 362.745L307.933 361.529C310.476 360.755 314.566 358.545 316.888 356.444L321.199 352.796L323.189 370.926L325.068 389.055L322.083 394.362C302.848 427.526 273.774 454.499 240.61 469.755C212.752 482.689 176.382 488.99 150.736 485.342C101.1 478.377 62.7403 440.902 54.4493 391.487C49.9169 363.63 56.8813 333.008 73.0212 309.904C75.6743 306.145 85.5129 294.427 95.02 283.925C133.932 240.702 132.495 242.36 132.495 238.822C132.495 234.511 128.184 229.979 124.094 229.979C120.998 229.979 74.5688 257.836 61.9665 267.233C40.852 283.041 21.3958 308.356 11.4465 333.008C-17.8484 405.969 10.6727 488.548 78.8801 527.792C105.411 543.047 133.49 549.348 168.423 547.911C228.782 545.59 286.045 526.797 335.902 492.97C354.916 480.146 365.749 471.081 382.995 453.946C399.908 436.922 409.194 425.868 421.244 407.959C425.555 401.547 429.314 396.13 429.645 395.799C430.419 394.804 438.6 405.085 441.916 411.275C443.685 414.592 446.006 420.34 447.001 423.988C447.996 427.636 449.544 432.721 450.428 435.375L452.197 440.018L446.227 454.057C440.59 467.323 440.147 467.986 435.836 469.865C423.676 475.171 420.581 489.543 429.756 498.718C443.574 512.536 465.684 497.281 458.056 479.262C456.508 475.503 456.619 474.95 461.815 463.011L467.121 450.63L472.538 450.962C478.618 451.293 478.949 451.514 484.587 461.574C488.014 467.765 488.235 468.649 487.13 472.739C485.361 479.372 486.798 485.121 491.662 489.874C504.043 502.366 524.384 491.201 521.178 473.734C520.073 468.096 514.545 462.348 508.686 460.69C504.154 459.474 503.491 458.811 498.295 449.746C492.878 440.239 492.768 440.018 494.536 436.701C496.195 433.385 496.305 433.385 505.481 433.385C514.545 433.385 514.877 433.495 518.525 437.143C529.359 447.977 548.152 439.907 548.152 424.541C548.152 409.064 530.022 401.326 518.414 411.939C514.435 415.476 513.772 415.697 506.144 415.697H498.184L498.848 411.496C501.832 392.151 504.043 369.931 503.491 363.961C501.832 345.279 486.798 329.802 468.447 327.702C464.91 327.26 461.925 326.596 461.925 326.154C461.925 325.823 463.141 321.29 464.689 316.205C471.432 293.764 475.965 265.243 477.07 238.27C478.065 211.738 474.527 189.518 465.794 168.404C463.583 162.987 461.593 157.902 461.262 157.018C460.93 155.912 463.031 153.812 467.01 150.938C478.618 142.757 488.456 127.944 492.215 113.13C494.647 103.623 495.642 86.8203 494.094 81.2929L492.878 76.8711L500.174 69.575C507.139 62.6105 507.802 62.1683 513.55 61.7261C523.942 60.8417 529.911 54.5406 529.911 44.2597C529.911 33.5367 523.5 27.1249 512.777 27.1249C502.496 27.1249 496.195 33.0945 495.31 43.4859C494.868 49.2343 494.426 49.8976 487.351 56.9726C483.15 61.1734 479.281 64.0476 478.618 63.716C477.844 63.1632 477.402 57.857 477.402 48.4605V33.9789L481.16 29.7781C494.094 15.5175 478.949 -6.03912 461.372 1.58863ZM317.882 178.685C321.088 179.569 323.852 180.675 324.184 181.227C325.289 182.886 320.757 187.418 314.898 190.624C310.918 192.724 306.938 193.94 302.185 194.382L295.22 194.935L292.457 190.624C290.025 186.644 289.914 185.76 291.02 181.117L292.125 175.921L302.185 176.474C307.602 176.805 314.677 177.8 317.882 178.685Z" fill="#F95A2C"/>
</svg>
