<svg width="120" height="120" viewBox="0 0 120 120" fill="none" xmlns="http://www.w3.org/2000/svg">
<circle cx="60" cy="60" r="60" fill="#FFBD12"/>
<path d="M63.5049 99.4336C57.7507 99.4336 52.4124 98.5323 47.4901 96.7298C42.5677 94.8579 38.304 92.2234 34.699 88.8263C31.1632 85.4292 28.3901 81.4429 26.3796 76.8672C24.369 72.2222 23.3638 67.1265 23.3638 61.5803C23.3638 56.034 24.369 50.973 26.3796 46.3973C28.3901 41.7523 31.1979 37.7313 34.803 34.3342C38.408 30.9371 42.6717 28.3373 47.5941 26.5347C52.5857 24.6629 58.028 23.7269 63.9209 23.7269C70.7844 23.7269 76.92 24.8708 82.3276 27.1587C87.7352 29.4465 92.2069 32.7396 95.7427 37.038L82.6396 48.8931C80.1438 46.1893 77.44 44.1788 74.5282 42.8616C71.6857 41.475 68.4966 40.7817 64.9608 40.7817C61.8411 40.7817 58.9986 41.267 56.4334 42.2376C53.8683 43.2082 51.6844 44.6295 49.8819 46.5013C48.0794 48.3039 46.6581 50.4877 45.6182 53.0529C44.6476 55.5487 44.1623 58.3911 44.1623 61.5803C44.1623 64.6307 44.6476 67.4385 45.6182 70.0037C46.6581 72.5688 48.0794 74.7873 49.8819 76.6592C51.6844 78.4617 53.8336 79.883 56.3294 80.9229C58.8946 81.8935 61.7024 82.3788 64.7528 82.3788C67.8033 82.3788 70.7844 81.8935 73.6962 80.9229C74.422 80.6637 75.15 80.3614 75.8801 80.016V60.0204H94.0788V90.1782C89.9191 93.1594 85.1007 95.4472 79.6238 97.0417C74.1469 98.6363 68.7739 99.4336 63.5049 99.4336Z" fill="black"/>
<path fill-rule="evenodd" clip-rule="evenodd" d="M46.6497 98.9389C41.4561 96.9639 36.9225 94.1694 33.0778 90.5464L33.0611 90.5307C29.2979 86.9151 26.348 82.6712 24.2155 77.8179L24.2102 77.806C22.0596 72.8373 21 67.4183 21 61.5803C21 55.7451 22.0586 50.3577 24.2128 45.4525C26.348 40.5217 29.3391 36.235 33.1818 32.6141C37.031 28.987 41.5711 26.2245 46.7724 24.3186C52.0536 22.3394 57.7774 21.3635 63.9206 21.3635C71.0477 21.3635 77.5043 22.5519 83.2482 24.982C88.9875 27.4102 93.776 30.9271 97.5676 35.5366L99 37.2779L82.4898 52.2157L80.9026 50.4962C78.5893 47.9902 76.1367 46.1834 73.5537 45.015L73.5225 45.0008L73.4917 44.9858C71.0083 43.7744 68.1799 43.1452 64.9605 43.1452C62.0876 43.1452 59.5333 43.5916 57.2695 44.4481C55.0132 45.3019 53.1304 46.5349 51.584 48.1407L51.5686 48.1568L51.5528 48.1725C49.9961 49.7292 48.7453 51.6348 47.8146 53.9251C46.9723 56.0976 46.5255 58.6365 46.5255 61.5803C46.5255 64.3663 46.9663 66.8787 47.8187 69.1415C48.7487 71.427 50.0015 73.3722 51.5685 75.0036C53.1281 76.559 54.9967 77.8022 57.2019 78.7261C59.462 79.5759 61.9708 80.0153 64.7525 80.0153C67.539 80.0153 70.2599 79.5741 72.9246 78.6887C73.1212 78.6182 73.3184 78.544 73.5163 78.4661V57.6569H96.4419V89.3503V91.3922L94.6624 92.6544C90.4494 95.5357 85.649 97.7491 80.2842 99.311C74.6102 100.963 69.0148 101.797 63.5046 101.797C57.5002 101.797 51.884 100.856 46.677 98.9491L46.6497 98.9389ZM91.1031 92.1256C91.4435 91.9225 91.7801 91.7154 92.1128 91.5043C92.7836 91.0787 93.4388 90.6367 94.0785 90.1782V60.0204H75.8798V80.016C75.1497 80.3614 74.4217 80.6637 73.6959 80.9229C73.6361 80.9428 73.5762 80.9626 73.5163 80.9821C70.6615 81.9132 67.7403 82.3788 64.7525 82.3788C61.7021 82.3788 58.8943 81.8935 56.3291 80.9229C53.8333 79.883 51.6841 78.4617 49.8816 76.6592C48.0791 74.7873 46.6578 72.5688 45.6179 70.0037C44.6473 67.4385 44.162 64.6307 44.162 61.5803C44.162 58.3912 44.6473 55.5487 45.6179 53.0529C46.6578 50.4877 48.0791 48.3039 49.8816 46.5013C51.6841 44.6295 53.868 43.2082 56.4331 42.2376C58.9983 41.267 61.8407 40.7817 64.9605 40.7817C68.4963 40.7817 71.6854 41.475 74.5279 42.8616C77.4396 44.1788 80.1434 46.1893 82.6392 48.893L95.7424 37.038C92.2066 32.7396 87.7349 29.4465 82.3273 27.1587C76.9197 24.8709 70.7841 23.7269 63.9206 23.7269C58.0277 23.7269 52.5854 24.6629 47.5938 26.5347C42.6714 28.3373 38.4077 30.9371 34.8027 34.3342C31.1976 37.7313 28.3898 41.7523 26.3793 46.3973C24.3687 50.973 23.3635 56.034 23.3635 61.5803C23.3635 67.1265 24.3687 72.2222 26.3793 76.8672C28.3898 81.4428 31.1629 85.4292 34.6987 88.8263C38.3037 92.2234 42.5674 94.8579 47.4898 96.7298C52.4121 98.5323 57.7504 99.4336 63.5046 99.4336C68.7736 99.4336 74.1465 98.6363 79.6235 97.0418C83.8405 95.814 87.667 94.1753 91.1031 92.1256Z" fill="black"/>
<path d="M63.5049 97.0701C57.7507 97.0701 52.4124 96.1688 47.4901 94.3663C42.5677 92.4944 38.304 89.86 34.699 86.4629C31.1632 83.0658 28.3901 79.0794 26.3796 74.5037C24.369 69.8587 23.3638 64.7631 23.3638 59.2168C23.3638 53.6705 24.369 48.6095 26.3796 44.0339C28.3901 39.3889 31.1979 35.3678 34.803 31.9707C38.408 28.5736 42.6717 25.9738 47.5941 24.1713C52.5857 22.2994 58.028 21.3635 63.9209 21.3635C70.7844 21.3635 76.92 22.5074 82.3276 24.7952C87.7352 27.0831 92.2069 30.3762 95.7427 34.6745L82.6396 46.5297C80.1438 43.8259 77.4399 41.8154 74.5282 40.4981C71.6857 39.1115 68.4966 38.4183 64.9608 38.4183C61.8411 38.4183 58.9986 38.9036 56.4334 39.8742C53.8683 40.8448 51.6844 42.266 49.8819 44.1379C48.0794 45.9404 46.6581 48.1242 45.6182 50.6894C44.6476 53.1852 44.1623 56.0277 44.1623 59.2168C44.1623 62.2672 44.6476 65.075 45.6182 67.6402C46.6581 70.2053 48.0794 72.4239 49.8819 74.2957C51.6844 76.0983 53.8336 77.5195 56.3294 78.5594C58.8946 79.53 61.7024 80.0153 64.7528 80.0153C67.8033 80.0153 70.7844 79.53 73.6962 78.5594C76.608 77.5195 79.5545 75.7863 82.5356 73.3598L94.0788 87.8148C89.9191 90.7959 85.1007 93.0837 79.6238 94.6783C74.1469 96.2728 68.7739 97.0701 63.5049 97.0701ZM75.8801 85.111V57.6569H94.0788V87.8148L75.8801 85.111Z" fill="white"/>
<path fill-rule="evenodd" clip-rule="evenodd" d="M46.6497 96.5754C41.4561 94.6004 36.9225 91.8059 33.0778 88.183L33.0611 88.1673C29.2979 84.5517 26.348 80.3078 24.2155 75.4545L24.2102 75.4426C22.0596 70.4738 21 65.0548 21 59.2168C21 53.3816 22.0586 47.9942 24.2128 43.0891C26.348 38.1582 29.3391 33.8716 33.1818 30.2506C37.031 26.6235 41.5711 23.861 46.7724 21.9551C52.0536 19.9759 57.7774 19 63.9206 19C71.0477 19 77.5043 20.1884 83.2482 22.6185C88.9875 25.0467 93.776 28.5637 97.5676 33.1731L99 35V37.5L82.4898 49.8522L80.9026 48.1328C78.5893 45.6267 76.1367 43.82 73.5537 42.6515L73.5225 42.6374L73.4916 42.6223C71.0083 41.4109 68.1799 40.7817 64.9605 40.7817C62.0876 40.7817 59.5333 41.2281 57.2695 42.0847C55.0132 42.9384 53.1304 44.1715 51.584 45.7773L51.5686 45.7933L51.5528 45.8091C49.9961 47.3658 48.7453 49.2713 47.8146 51.5616C46.9723 53.7342 46.5255 56.2731 46.5255 59.2168C46.5255 62.0029 46.9663 64.5152 47.8187 66.7781C48.7487 69.0636 50.0015 71.0087 51.5685 72.6402C53.1281 74.1956 54.9967 75.4388 57.2019 76.3626C59.462 77.2124 61.9708 77.6519 64.7525 77.6519C67.539 77.6519 70.2599 77.2107 72.9246 76.3252C73.1212 76.2547 73.3184 76.1805 73.5163 76.1026V55.2934H96.4419V86.9869V89.0287L94.6624 90.2909C90.4494 93.1722 85.649 95.3856 80.2842 96.9475C74.6102 98.5995 69.0148 99.4336 63.5046 99.4336C57.5002 99.4336 51.884 98.4924 46.677 96.5856L46.6497 96.5754ZM91.1031 89.7621C91.4435 89.5591 91.7801 89.352 92.1128 89.1408C92.7836 88.7152 93.4388 88.2732 94.0785 87.8148V57.6569H75.8798V77.6526C75.1497 77.9979 74.4217 78.3002 73.6959 78.5594C73.6361 78.5794 73.5762 78.5991 73.5163 78.6187C70.6615 79.5498 67.7403 80.0153 64.7525 80.0153C61.7021 80.0153 58.8943 79.53 56.3291 78.5594C53.8333 77.5195 51.6841 76.0983 49.8816 74.2957C48.0791 72.4239 46.6578 70.2053 45.6179 67.6402C44.6473 65.075 44.162 62.2672 44.162 59.2168C44.162 56.0277 44.6473 53.1852 45.6179 50.6894C46.6578 48.1242 48.0791 45.9404 49.8816 44.1379C51.6841 42.266 53.868 40.8448 56.4331 39.8742C58.9983 38.9036 61.8407 38.4183 64.9605 38.4183C68.4963 38.4183 71.6854 39.1116 74.5279 40.4981C77.4396 41.8153 80.1434 43.8258 82.6392 46.5296L95.7424 34.6745C92.2066 30.3762 87.7349 27.0831 82.3273 24.7952C76.9197 22.5074 70.7841 21.3635 63.9206 21.3635C58.0277 21.3635 52.5854 22.2994 47.5938 24.1713C42.6714 25.9738 38.4077 28.5736 34.8027 31.9707C31.1976 35.3678 28.3898 39.3889 26.3793 44.0339C24.3687 48.6095 23.3635 53.6705 23.3635 59.2168C23.3635 64.7631 24.3687 69.8587 26.3793 74.5037C28.3898 79.0794 31.1629 83.0658 34.6987 86.4629C38.3037 89.86 42.5674 92.4944 47.4898 94.3663C52.4121 96.1688 57.7504 97.0701 63.5046 97.0701C68.7736 97.0701 74.1465 96.2728 79.6235 94.6783C83.8405 93.4506 87.667 91.8118 91.1031 89.7621Z" fill="black"/>
</svg>
