<svg width="314" height="129" viewBox="0 0 314 129" fill="none" xmlns="http://www.w3.org/2000/svg">
<rect width="314" height="129" fill="#FFBD12"/>
<path d="M45.409 99.3486L45.4252 99.355L45.4414 99.361C50.1991 101.128 55.3682 102 60.9287 102C65.969 102 70.999 101.227 76.0127 99.6893C80.8163 98.235 85.0909 96.1734 88.8154 93.4901L90.2869 93.6989V92.3914L91.1202 91.7628L90.2869 90.703V63.9365V61.9365H88.2869H73.9795H71.9795V63.9365V82.5731C71.3698 82.8533 70.7581 83.1 70.1445 83.3139C67.4545 84.2092 64.6755 84.6575 61.7988 84.6575C58.7955 84.6575 56.0778 84.178 53.6246 83.2444C51.238 82.3119 49.1551 80.981 47.3591 79.2487C45.621 77.4466 44.2537 75.3539 43.2565 72.9551C42.3305 70.574 41.8542 67.9297 41.8542 65C41.8542 62.0005 42.3322 59.325 43.2566 56.9482C44.2535 54.5501 45.6181 52.4952 47.3473 50.7627C49.1398 49.0309 51.2547 47.6953 53.7137 46.7584C56.1646 45.8246 58.9161 45.3425 61.9921 45.3425C65.1496 45.3425 68.0282 45.9368 70.6536 47.1038L70.6707 47.1114L70.6879 47.1187C73.3036 48.2232 75.7557 49.9536 78.0397 52.3581L79.3976 53.7877L80.8464 52.4502L90.9003 43.1684L92.3225 41.8555L91.0568 40.3911C87.5585 36.3435 83.2396 33.2632 78.1316 31.1508C73.083 29.0363 67.4343 28 61.2187 28C55.5929 28 50.3868 28.9042 45.6231 30.74C40.8772 32.5047 36.7174 35.059 33.1656 38.4064C29.6172 41.7505 26.8516 45.6787 24.8757 50.1762L24.8706 50.1879L24.8656 50.1996C22.9461 54.7249 22 59.667 22 65C22 70.3329 22.9461 75.2751 24.8656 79.8003L24.8706 79.8121L24.8757 79.8238C26.8479 84.3128 29.5755 88.2369 33.0548 91.5802L33.0618 91.587L33.0689 91.5936C36.6133 94.934 40.7327 97.5185 45.409 99.3486ZM120.399 84.2707V72.6077H149.817H151.817V70.6077V58.4254V56.4254H149.817H120.399V45.7293H153.974H155.974V43.7293V31.1602V29.1602H153.974H102.835H100.835V31.1602V98.8398V100.84H102.835H155.231H157.231V98.8398V86.2707V84.2707H155.231H120.399ZM184.75 99.3486L184.767 99.355L184.783 99.361C189.535 101.126 194.639 102 200.077 102C206.238 102 211.832 100.928 216.825 98.7405C221.878 96.5542 226.133 93.3654 229.562 89.1821L230.757 87.7238L229.372 86.4448L219.318 77.1631L217.793 75.7554L216.443 77.3311C214.284 79.8494 211.928 81.6925 209.383 82.9108C206.831 84.0679 204.028 84.6575 200.947 84.6575C198.01 84.6575 195.359 84.1785 192.974 83.2474C190.579 82.3128 188.528 80.9797 186.797 79.2489C185.062 77.514 183.694 75.4553 182.695 73.052C181.77 70.6752 181.292 67.9995 181.292 65C181.292 62.0004 181.77 59.3248 182.695 56.948C183.694 54.5446 185.062 52.486 186.797 50.7511C188.528 49.0203 190.579 47.6872 192.974 46.7526C195.359 45.8215 198.01 45.3425 200.947 45.3425C204.02 45.3425 206.817 45.9611 209.366 47.1778L209.383 47.1859L209.4 47.1936C211.946 48.3512 214.301 50.133 216.458 52.5902L217.811 54.1312L219.318 52.7402L229.372 43.4585L230.757 42.1795L229.562 40.7212C226.132 36.5364 221.874 33.3776 216.816 31.2556C211.828 29.0718 206.269 28 200.173 28C194.671 28 189.558 28.9061 184.859 30.7434C180.178 32.5093 176.054 35.0636 172.507 38.4064L172.5 38.413L172.493 38.4198C169.014 41.7631 166.286 45.6872 164.314 50.1762L164.309 50.1879L164.304 50.1996C162.384 54.7249 161.438 59.667 161.438 65C161.438 70.3329 162.384 75.2751 164.304 79.8004L164.309 79.8121L164.314 79.8238C166.286 84.3128 169.014 88.2369 172.493 91.5802C175.978 94.9291 180.071 97.5173 184.75 99.3486ZM244.733 97.8884L244.744 97.8943C249.389 100.391 254.653 101.613 260.482 101.613C266.251 101.613 271.481 100.389 276.123 97.8943C280.738 95.4143 284.389 92.0147 287.032 87.7025L287.035 87.6964L287.039 87.6903C289.692 83.2908 291 78.3191 291 72.8315C291 67.2255 289.697 62.2134 287.032 57.8638C284.388 53.5497 280.733 50.1795 276.113 47.7633C271.473 45.2724 266.247 44.0497 260.482 44.0497C254.654 44.0497 249.393 45.2715 244.749 47.7662C240.187 50.1868 236.54 53.5896 233.84 57.9529L233.835 57.9605C231.172 62.3062 229.867 67.2849 229.867 72.8315C229.867 78.3191 231.174 83.2908 233.828 87.6903L233.837 87.7064L233.847 87.7223C236.548 92.0158 240.188 95.4087 244.733 97.8884ZM266.244 83.7677C264.578 84.7354 262.674 85.2376 260.482 85.2376C258.289 85.2376 256.385 84.7354 254.719 83.7677C253.052 82.7998 251.691 81.427 250.632 79.5992C249.663 77.7534 249.141 75.5186 249.141 72.8315C249.141 70.0648 249.668 67.8399 250.626 66.0745C251.685 64.2413 253.049 62.8651 254.719 61.8953C256.385 60.9276 258.289 60.4254 260.482 60.4254C262.674 60.4254 264.578 60.9276 266.244 61.8953C267.91 62.8626 269.236 64.2321 270.23 66.0543C271.194 67.8229 271.726 70.0542 271.726 72.8315C271.726 75.5285 271.2 77.7698 270.224 79.6195C269.231 81.4364 267.907 82.8023 266.244 83.7677Z" fill="white" stroke="black" stroke-width="4"/>
</svg>
