<svg width="293" height="98" viewBox="0 0 293 98" fill="none" xmlns="http://www.w3.org/2000/svg">
<path fill-rule="evenodd" clip-rule="evenodd" d="M190.174 0C197.659 4.11091e-05 204.857 1.31641 211.537 4.22461C218.334 7.09067 224.168 11.4109 228.843 17.1143L231.282 20.0908C237.284 17.3133 243.768 16.0498 250.481 16.0498C257.941 16.0498 265.111 17.6368 271.658 21.1221C271.683 21.1352 271.709 21.1489 271.734 21.1621C271.757 21.1743 271.78 21.186 271.803 21.1982C278.208 24.5754 283.466 29.3963 287.264 35.5938C291.228 42.0628 293 49.3019 293 56.8311C293 64.3054 291.194 71.4557 287.315 77.8877L287.289 77.9307L287.264 77.9727C283.459 84.1805 278.199 89.0275 271.803 92.4648C265.217 96.0038 257.996 97.6133 250.481 97.6133C242.932 97.6132 235.672 96.0164 229.063 92.4648L229.025 92.4443L228.986 92.4229C226.444 91.0359 224.084 89.4259 221.922 87.5996C218.79 90.078 215.334 92.1343 211.585 93.7559L211.584 93.7549C204.873 96.6854 197.621 98 190.077 98C183.334 98 176.803 96.9129 170.604 94.6104L170.49 94.5674L170.377 94.5234C166.376 92.9575 162.646 90.9381 159.23 88.459V96.8398H78.835V91.459C75.882 92.9469 72.7745 94.1765 69.5342 95.1602C63.4319 97.0317 57.2165 98 50.9287 98C44.1001 98 37.4984 96.9267 31.2627 94.6104L31.1484 94.5674L31.0361 94.5234C24.9837 92.1548 19.5422 88.7588 14.8389 84.3262L14.7891 84.2803L14.7402 84.2334C10.1063 79.7806 6.48103 74.5488 3.88965 68.6504L3.85352 68.5684L3.81836 68.4863C1.20872 62.3342 4.53511e-07 55.7782 0 49C0 42.2218 1.20872 35.6658 3.81836 29.5137L3.85352 29.4316L3.88965 29.3496C6.507 23.3921 10.205 18.1321 14.9355 13.6738C19.669 9.21286 25.1712 5.84684 31.292 3.5498C31.3334 3.53384 31.3756 3.5178 31.417 3.50195C31.4301 3.49708 31.443 3.49119 31.4561 3.48633C37.7082 1.09949 44.347 0 51.2188 0C58.7776 1.27562e-06 66.0404 1.26399 72.7734 4.08496L72.7725 4.08594C74.8818 4.96118 76.9049 5.96863 78.835 7.10938V1.16016H157.974V10.5244C161.761 7.614 165.946 5.29825 170.474 3.57422C170.528 3.55275 170.584 3.53103 170.639 3.50977C176.828 1.11287 183.389 0 190.174 0Z" fill="#FFBD12"/>
<path d="M51.2188 12C57.4359 12 63.0861 13.0367 68.1357 15.1523H68.1348C73.2412 17.2646 77.5592 20.3441 81.0566 24.3906L82.3223 25.8555L80.9004 27.168L70.8467 36.4502L69.3975 37.7881L68.04 36.3584C65.7561 33.9539 63.3031 32.2237 60.6875 31.1191L60.6709 31.1113L60.6533 31.1035C58.0281 29.9366 55.1495 29.3428 51.9922 29.3428C48.9162 29.3428 46.1648 29.825 43.7139 30.7588C41.2495 31.6977 39.131 33.0371 37.3359 34.7744C35.6118 36.5049 34.2497 38.5558 33.2549 40.9492C32.3309 43.3257 31.8545 46.0012 31.8545 49C31.8545 51.9293 32.3301 54.5733 33.2559 56.9541C34.2516 59.3497 35.617 61.4397 37.3516 63.2402C39.1475 64.9746 41.2302 66.3074 43.6172 67.2412L44.0801 67.4111C46.4131 68.2348 48.9802 68.6572 51.7988 68.6572C54.6764 68.6572 57.4559 68.2083 60.1465 67.3125C60.7597 67.0987 61.3704 66.8512 61.9795 66.5713V45.9365H80.2871V76.3916L79.4912 76.9912C75.6113 79.9186 71.1105 82.1444 66.0146 83.6875L66.0156 83.6885C61.0009 85.2265 55.9699 86 50.9287 86C45.3682 86 40.1991 85.1287 35.4414 83.3613L35.4248 83.3545L35.4092 83.3486C30.733 81.5186 26.6137 78.934 23.0693 75.5938L23.0615 75.5869L23.0547 75.5801C19.5756 72.2369 16.8481 68.313 14.876 63.8242L14.8701 63.8125L14.8652 63.8008C12.9457 59.2755 12 54.333 12 49C12 43.667 12.9457 38.7245 14.8652 34.1992L14.8701 34.1875L14.876 34.1758C16.8519 29.6785 19.6178 25.7502 23.166 22.4062C26.7149 19.0617 30.8705 16.5086 35.6113 14.7441C40.3782 12.9053 45.5883 12 51.2188 12ZM190.174 12C196.263 12 201.816 13.0699 206.8 15.249C211.865 17.3711 216.128 20.5327 219.562 24.7217L220.757 26.1797L219.372 27.458L209.317 36.7402L207.812 38.1309L206.458 36.5898C204.301 34.1328 201.946 32.3509 199.399 31.1934L199.366 31.1777C196.817 29.9611 194.021 29.3428 190.947 29.3428C188.01 29.3428 185.359 29.8218 182.974 30.7529C180.579 31.6875 178.527 33.0202 176.797 34.751C175.062 36.486 173.693 38.5448 172.694 40.9482C171.77 43.325 171.292 46.0006 171.292 49C171.292 51.999 171.77 54.6742 172.694 57.0508C173.694 59.4546 175.062 61.5138 176.797 63.249C178.527 64.9798 180.579 66.3125 182.974 67.2471C185.359 68.1782 188.01 68.6572 190.947 68.6572C194.029 68.6572 196.832 68.0667 199.384 66.9092C201.929 65.6908 204.285 63.8489 206.442 61.3311L207.793 59.7559L209.317 61.1631L219.372 70.4453L220.757 71.7236L219.562 73.1816C216.132 77.3657 211.876 80.5559 206.821 82.7422L206.82 82.7412C201.829 84.9277 196.236 86 190.077 86C184.639 86 179.535 85.1266 174.783 83.3613L174.767 83.3545L174.75 83.3486C170.071 81.5173 165.978 78.9288 162.493 75.5801C159.014 72.2368 156.286 68.3132 154.313 63.8242L154.304 63.8008C152.384 59.2755 151.438 54.333 151.438 49C151.438 43.667 152.384 38.7245 154.304 34.1992L154.313 34.1758C156.286 29.6868 159.014 25.7632 162.493 22.4199L162.507 22.4062C166.051 19.0664 170.17 16.5138 174.847 14.748L175.733 14.4141C180.191 12.7978 185.01 12 190.174 12ZM250.481 28.0498C256.25 28.0498 261.481 29.274 266.123 31.7686H266.122C270.738 34.1845 274.389 37.5532 277.031 41.8643C279.697 46.2137 281 51.2253 281 56.8311C281 62.3187 279.692 67.2909 277.039 71.6904L277.031 71.7021C274.389 76.0143 270.738 79.4145 266.123 81.8945C261.481 84.3891 256.25 85.6133 250.481 85.6133C244.652 85.6132 239.389 84.3908 234.744 81.8945L234.733 81.8887C230.188 79.4091 226.548 76.016 223.848 71.7227L223.837 71.7061L223.828 71.6904C221.175 67.2909 219.867 62.3187 219.867 56.8311C219.867 51.2848 221.172 46.3065 223.835 41.9609L223.84 41.9531C226.54 37.5913 230.184 34.189 234.744 31.7686C239.389 29.2723 244.652 28.0498 250.481 28.0498ZM145.974 13.1602V29.7295H110.398V40.4258H141.817V56.6074H110.398V68.2705H147.23V84.8398H90.835V13.1602H145.974ZM250.481 44.4258C248.289 44.4258 246.385 44.9279 244.719 45.8955C243.049 46.8651 241.685 48.2407 240.626 50.0732C239.668 51.8387 239.141 54.0641 239.141 56.8311C239.141 59.5169 239.662 61.7513 240.631 63.5967C241.69 65.4256 243.051 66.7993 244.719 67.7676C246.385 68.7352 248.289 69.2373 250.481 69.2373C252.674 69.2373 254.578 68.7352 256.244 67.7676C257.91 66.8002 259.236 65.4306 260.229 63.6084C261.202 61.7608 261.726 59.5227 261.726 56.8311C261.726 54.0541 261.194 51.8232 260.229 50.0547C259.236 48.2325 257.91 46.8629 256.244 45.8955C254.578 44.9279 252.674 44.4258 250.481 44.4258Z" fill="white" stroke="black" stroke-width="4"/>
</svg>
