<svg width="128" height="19" viewBox="0 0 128 19" fill="none" xmlns="http://www.w3.org/2000/svg">
<path d="M0 18.8662V0.133803H3.83918V18.8662H0ZM5.30951 18.8662V15.093C5.70886 15.093 6.08098 14.9324 6.42587 14.6113C6.68 14.3258 6.81614 13.9869 6.83429 13.5944V5.40563C6.83429 5.04883 6.68 4.70094 6.37141 4.36197C6.08098 4.07653 5.72701 3.92488 5.30951 3.90704V0.133803C7.3244 0.133803 8.84918 1.0169 9.88385 2.7831C10.4103 3.69296 10.6735 4.56714 10.6735 5.40563V13.5944C10.6735 15.6282 9.75679 17.1446 7.92342 18.1437C7.01581 18.6254 6.14451 18.8662 5.30951 18.8662Z" fill="white"/>
<path d="M12.8517 18.8662V0.133803H22.7628V3.88028H16.6909V7.68028H20.2034V11.4535H16.6909V15.093H22.7628V18.8662H12.8517Z" fill="white"/>
<path d="M24.3421 14.638L27.8 13.4338C27.8 13.8798 27.9271 14.2723 28.1812 14.6113C28.4354 14.9502 28.6895 15.1732 28.9436 15.2803L29.3248 15.4676V18.9465C27.7819 18.9465 26.4659 18.2864 25.3767 16.9662C24.7051 16.1277 24.3602 15.3516 24.3421 14.638ZM24.5599 5.27183C24.5599 3.30939 25.413 1.83756 27.1193 0.856338C27.8999 0.392488 28.635 0.151643 29.3248 0.133803V3.6662C28.871 3.79108 28.5352 4.11221 28.3174 4.62958C28.2448 4.79014 28.2085 4.95962 28.2085 5.13803C28.2085 5.86948 28.7621 6.4939 29.8694 7.01127C30.1054 7.11831 30.4866 7.27887 31.013 7.49296C31.8843 7.83192 32.5015 8.10845 32.8645 8.32254C34.3348 9.17887 35.315 10.0531 35.8051 10.9451C36.1682 11.6408 36.3497 12.4169 36.3497 13.2732C36.3497 14.8967 35.7235 16.2883 34.471 17.4479C33.4 18.4469 32.1838 18.9465 30.8224 18.9465V15.4676C31.5303 15.3784 32.0295 15.0127 32.3199 14.3704C32.447 14.085 32.5105 13.7728 32.5105 13.4338C32.5105 12.5239 31.8207 11.7746 30.4412 11.1859C30.1871 11.0789 29.7877 10.9272 29.2431 10.731C28.6078 10.5169 28.1631 10.3474 27.909 10.2225C26.3479 9.49108 25.3495 8.54554 24.9138 7.38592C24.6779 6.7615 24.5599 6.05681 24.5599 5.27183ZM30.8224 3.6662V0.133803C32.3472 0.133803 33.6269 0.767136 34.6616 2.0338C35.2606 2.7831 35.5692 3.46103 35.5873 4.06761L32.0476 5.21831C32.0476 4.46901 31.6755 3.96056 30.9313 3.69296C30.8587 3.67512 30.8224 3.6662 30.8224 3.6662Z" fill="white"/>
<path d="M38.0379 18.8662V0.133803H47.9489V3.88028H41.877V7.68028H45.3895V11.4535H41.877V15.093H47.9489V18.8662H38.0379Z" fill="white"/>
<path d="M50.1272 18.8662V0.133803H53.9664V18.8662H50.1272ZM55.4367 11.2127V7.86761H55.7907C56.9524 7.86761 57.6967 7.40376 58.0234 6.47606C58.096 6.24413 58.1323 6.00329 58.1323 5.75352C58.1323 4.80798 57.6785 4.17465 56.7709 3.85352C56.4805 3.74648 56.1537 3.69296 55.7907 3.69296H55.4367V0.133803H56.0357C58.4137 0.169484 60.0837 0.999061 61.0457 2.62254C61.4995 3.38967 61.7264 4.25493 61.7264 5.21831C61.7083 7.05587 61.0911 8.46526 59.8749 9.44648C60.7825 10.0174 61.3634 11.0521 61.6175 12.5507C61.6357 12.7291 61.6538 12.8986 61.672 13.0592L62.1349 18.8662H58.5952L58.1868 14.1028C58.0415 12.6756 57.6241 11.7925 56.9343 11.4535C56.6075 11.3108 56.2082 11.2305 55.7362 11.2127H55.4367Z" fill="white"/>
<path d="M63.1423 3.82676V0.133803H74.9321V3.82676H70.9568V18.8662H67.1176V3.82676H63.1423Z" fill="white"/>
<path d="M76.3752 13.6479V4.84366C76.3752 3.89812 76.7837 2.93474 77.6005 1.95352C78.6896 0.669014 80.0692 0.0178404 81.7392 0V3.77324C80.995 3.79108 80.5049 4.20141 80.2689 5.00423C80.2326 5.12911 80.2144 5.21831 80.2144 5.27183V13.6479C80.2144 14.3793 80.6228 14.8789 81.4397 15.1465C81.5668 15.1822 81.6575 15.2 81.712 15.2V19C80.6773 19 79.6426 18.6343 78.608 17.9028C77.1376 16.8324 76.3934 15.4141 76.3752 13.6479ZM83.2095 19V15.2C83.5 15.2 83.8267 15.0484 84.1897 14.7451C84.5346 14.4418 84.7162 14.0761 84.7343 13.6479V5.27183C84.7343 4.9507 84.58 4.61174 84.2714 4.25493C83.981 3.95164 83.627 3.79108 83.2095 3.77324V0C85.0429 0 86.5132 0.776056 87.6205 2.32817C88.2558 3.22019 88.5735 4.05869 88.5735 4.84366V13.6479C88.5735 15.6282 87.675 17.1446 85.8779 18.1972C84.934 18.7324 84.0445 19 83.2095 19Z" fill="white"/>
<path d="M90.7518 18.8662V0.133803H94.5909V18.8662H90.7518ZM96.0613 11.2127V7.86761H96.4152C97.577 7.86761 98.3212 7.40376 98.6479 6.47606C98.7206 6.24413 98.7569 6.00329 98.7569 5.75352C98.7569 4.80798 98.3031 4.17465 97.3954 3.85352C97.105 3.74648 96.7783 3.69296 96.4152 3.69296H96.0613V0.133803H96.6603C99.0382 0.169484 100.708 0.999061 101.67 2.62254C102.124 3.38967 102.351 4.25493 102.351 5.21831C102.333 7.05587 101.716 8.46526 100.499 9.44648C101.407 10.0174 101.988 11.0521 102.242 12.5507C102.26 12.7291 102.278 12.8986 102.297 13.0592L102.759 18.8662H99.2197L98.8113 14.1028C98.6661 12.6756 98.2486 11.7925 97.5588 11.4535C97.2321 11.3108 96.8327 11.2305 96.3608 11.2127H96.0613Z" fill="white"/>
<path d="M104.502 18.8662V0.133803H114.413V3.88028H108.341V7.68028H111.854V11.4535H108.341V15.093H114.413V18.8662H104.502Z" fill="white"/>
<path d="M115.992 14.638L119.45 13.4338C119.45 13.8798 119.577 14.2723 119.832 14.6113C120.086 14.9502 120.34 15.1732 120.594 15.2803L120.975 15.4676V18.9465C119.432 18.9465 118.116 18.2864 117.027 16.9662C116.355 16.1277 116.01 15.3516 115.992 14.638ZM116.21 5.27183C116.21 3.30939 117.063 1.83756 118.77 0.856338C119.55 0.392488 120.285 0.151643 120.975 0.133803V3.6662C120.521 3.79108 120.185 4.11221 119.968 4.62958C119.895 4.79014 119.859 4.95962 119.859 5.13803C119.859 5.86948 120.412 6.4939 121.52 7.01127C121.756 7.11831 122.137 7.27887 122.663 7.49296C123.535 7.83192 124.152 8.10845 124.515 8.32254C125.985 9.17887 126.965 10.0531 127.455 10.9451C127.818 11.6408 128 12.4169 128 13.2732C128 14.8967 127.374 16.2883 126.121 17.4479C125.05 18.4469 123.834 18.9465 122.473 18.9465V15.4676C123.181 15.3784 123.68 15.0127 123.97 14.3704C124.097 14.085 124.161 13.7728 124.161 13.4338C124.161 12.5239 123.471 11.7746 122.091 11.1859C121.837 11.0789 121.438 10.9272 120.893 10.731C120.258 10.5169 119.813 10.3474 119.559 10.2225C117.998 9.49108 117 8.54554 116.564 7.38592C116.328 6.7615 116.21 6.05681 116.21 5.27183ZM122.473 3.6662V0.133803C123.997 0.133803 125.277 0.767136 126.312 2.0338C126.911 2.7831 127.219 3.46103 127.238 4.06761L123.698 5.21831C123.698 4.46901 123.326 3.96056 122.582 3.69296C122.509 3.67512 122.473 3.6662 122.473 3.6662Z" fill="white"/>
</svg>
